<svg width="151" height="149" viewBox="0 0 151 149" fill="none" xmlns="http://www.w3.org/2000/svg">
<path fill-rule="evenodd" clip-rule="evenodd" d="M119.442 135.337C106.885 142.214 91.782 135.663 77.6261 137.782C63.6711 139.872 50.853 152.189 37.5129 147.605C23.9226 142.936 17.5554 127.735 11.0661 114.914C4.59224 102.125 -1.70811 88.5115 0.422227 74.3295C2.56156 60.0876 13.9222 49.9814 22.5525 38.4474C32.9384 24.5671 38.7248 2.60447 55.8884 0.201273C73.1023 -2.20898 84.5071 17.6288 98.5916 27.8006C110.027 36.059 122.09 42.6899 130.451 54.0502C140.214 67.3166 152.471 81.6726 150.259 98.0036C148.04 114.391 133.949 127.392 119.442 135.337Z" fill="url(#paint0_linear_4_59)" fill-opacity="0.5"/>
<defs>
<linearGradient id="paint0_linear_4_59" x1="120.565" y1="138.866" x2="15.8397" y2="34.1402" gradientUnits="userSpaceOnUse">
<stop stop-color="#6D678E"/>
<stop offset="1" stop-color="#F6B5CC"/>
</linearGradient>
</defs>
</svg>
