<svg width="137" height="151" viewBox="0 0 137 151" fill="none" xmlns="http://www.w3.org/2000/svg">
<path fill-rule="evenodd" clip-rule="evenodd" d="M84.4055 150.321C70.0923 149.999 60.2883 136.773 46.9691 131.531C33.8389 126.363 16.5797 130.621 7.31849 119.982C-2.11649 109.143 -0.0298079 92.7942 0.760402 78.447C1.54873 64.1338 2.89907 49.1942 11.835 37.9774C20.8087 26.7132 35.7004 23.6413 48.9415 17.9677C64.876 11.14 80.8685 -4.98702 96.9342 1.51354C113.047 8.03318 113.005 30.9156 120.117 46.7669C125.89 59.6363 133.022 71.4104 134.582 85.4291C136.405 101.8 139.841 120.361 129.76 133.398C119.645 146.48 100.942 150.694 84.4055 150.321Z" fill="url(#paint0_linear_4_58)"/>
<defs>
<linearGradient id="paint0_linear_4_58" x1="83.6137" y1="153.939" x2="45.2815" y2="10.8811" gradientUnits="userSpaceOnUse">
<stop stop-color="#6D678E"/>
<stop offset="1" stop-color="#F6B5CC"/>
</linearGradient>
</defs>
</svg>
