<svg width="140" height="146" viewBox="0 0 140 146" fill="none" xmlns="http://www.w3.org/2000/svg">
<path fill-rule="evenodd" clip-rule="evenodd" d="M83.7577 8.89384C96.3799 15.6505 99.1485 31.8789 108.661 42.5746C118.038 53.1186 135.358 57.1208 138.811 70.797C142.329 84.7298 133.079 98.3705 125.89 110.812C118.718 123.224 110.762 135.94 97.7214 141.908C84.6258 147.9 69.9534 143.91 55.5775 142.987C38.2774 141.876 16.7229 149.035 5.32938 135.975C-6.09758 122.877 4.28137 102.484 5.10132 85.1301C5.76703 71.0405 4.72662 57.3145 9.67013 44.1038C15.4431 28.6766 20.7661 10.5663 35.6507 3.49241C50.5863 -3.60573 69.1752 1.08785 83.7577 8.89384Z" fill="url(#paint0_linear_4_63)" fill-opacity="0.5"/>
<defs>
<linearGradient id="paint0_linear_4_63" x1="86.0989" y1="6.02486" x2="55.6397" y2="150.963" gradientUnits="userSpaceOnUse">
<stop stop-color="#6D678E"/>
<stop offset="1" stop-color="#F6B5CC"/>
</linearGradient>
</defs>
</svg>
