<svg width="150" height="152" viewBox="0 0 150 152" fill="none" xmlns="http://www.w3.org/2000/svg">
<path fill-rule="evenodd" clip-rule="evenodd" d="M131.849 28.8236C139.402 40.9861 133.685 56.4246 136.575 70.4436C139.424 84.2635 152.423 96.3896 148.575 109.96C144.656 123.785 129.824 130.973 117.378 138.153C104.961 145.316 91.7123 152.351 77.4351 150.999C63.0976 149.641 52.3859 138.849 40.3975 130.862C25.9706 121.25 3.72464 116.672 0.387342 99.6652C-2.95976 82.6087 16.2253 70.1371 25.6124 55.518C33.2338 43.6489 39.1958 31.2416 50.0823 22.2726C62.7955 11.7986 76.4605 -1.22384 92.8878 0.0923027C109.372 1.41296 123.123 14.7722 131.849 28.8236Z" fill="url(#paint0_linear_4_62)"/>
<defs>
<linearGradient id="paint0_linear_4_62" x1="135.311" y1="27.5096" x2="36.4636" y2="137.8" gradientUnits="userSpaceOnUse">
<stop stop-color="#6D678E"/>
<stop offset="1" stop-color="#F6B5CC"/>
</linearGradient>
</defs>
</svg>
