<svg width="48" height="45" viewBox="0 0 48 45" fill="none" xmlns="http://www.w3.org/2000/svg">
<path fill-rule="evenodd" clip-rule="evenodd" d="M0 43.5C0 43.1022 0.158035 42.7206 0.43934 42.4393C0.720644 42.158 1.10218 42 1.5 42H46.5C46.8978 42 47.2794 42.158 47.5607 42.4393C47.842 42.7206 48 43.1022 48 43.5C48 43.8978 47.842 44.2794 47.5607 44.5607C47.2794 44.842 46.8978 45 46.5 45H1.5C1.10218 45 0.720644 44.842 0.43934 44.5607C0.158035 44.2794 0 43.8978 0 43.5ZM9.36 0.525C9.50083 0.360352 9.67566 0.228166 9.87245 0.137537C10.0692 0.0469072 10.2833 -1.4251e-05 10.5 3.24674e-09H37.5C37.7167 -1.4251e-05 37.9308 0.0469072 38.1275 0.137537C38.3243 0.228166 38.4992 0.360352 38.64 0.525L46.917 10.182C47.6158 10.9975 48 12.036 48 13.11V13.5H45V13.11C45 12.7525 44.8724 12.4067 44.64 12.135L36.81 3H11.19L3.36 12.135C3.12764 12.4067 2.99997 12.7525 3 13.11V13.5H0V13.11C3.77792e-05 12.036 0.38417 10.9975 1.083 10.182L9.363 0.522L9.36 0.525Z" fill="white"/>
<path d="M7.125 17.625C9.405 17.625 11.25 15.777 11.25 13.5H14.25C14.25 14.594 14.6846 15.6432 15.4582 16.4168C16.2318 17.1904 17.281 17.625 18.375 17.625C19.469 17.625 20.5182 17.1904 21.2918 16.4168C22.0654 15.6432 22.5 14.594 22.5 13.5H25.5C25.5 14.594 25.9346 15.6432 26.7082 16.4168C27.4818 17.1904 28.531 17.625 29.625 17.625C30.719 17.625 31.7682 17.1904 32.5418 16.4168C33.3154 15.6432 33.75 14.594 33.75 13.5H36.75C36.75 14.594 37.1846 15.6432 37.9582 16.4168C38.7318 17.1904 39.781 17.625 40.875 17.625C41.969 17.625 43.0182 17.1904 43.7918 16.4168C44.5654 15.6432 45 14.594 45 13.5H48C48.0002 14.9849 47.5364 16.4328 46.6735 17.6413C45.8105 18.8497 44.5916 19.7584 43.187 20.2402C41.7825 20.7221 40.2624 20.7531 38.8394 20.3288C37.4164 19.9046 36.1614 19.0463 35.25 17.874C34.5844 18.7313 33.7315 19.4249 32.7565 19.9018C31.7815 20.3786 30.7103 20.626 29.625 20.625C28.5396 20.6262 27.4684 20.3789 26.4934 19.9021C25.5183 19.4252 24.6654 18.7315 24 17.874C23.3346 18.7315 22.4817 19.4252 21.5066 19.9021C20.5316 20.3789 19.4604 20.6262 18.375 20.625C17.2896 20.6262 16.2184 20.3789 15.2434 19.9021C14.2683 19.4252 13.4154 18.7315 12.75 17.874C11.8386 19.0463 10.5836 19.9046 9.16061 20.3288C7.73758 20.7531 6.21755 20.7221 4.81297 20.2402C3.4084 19.7584 2.18947 18.8497 1.32655 17.6413C0.463625 16.4328 -0.000163796 14.9849 4.33936e-08 13.5H3C3 15.78 4.848 17.625 7.125 17.625Z" fill="white"/>
<path d="M14.25 13.5C14.25 13.8978 14.092 14.2794 13.8107 14.5607C13.5294 14.842 13.1478 15 12.75 15C12.3522 15 11.9706 14.842 11.6893 14.5607C11.408 14.2794 11.25 13.8978 11.25 13.5C11.25 13.1022 11.408 12.7206 11.6893 12.4393C11.9706 12.158 12.3522 12 12.75 12C13.1478 12 13.5294 12.158 13.8107 12.4393C14.092 12.7206 14.25 13.1022 14.25 13.5ZM25.5 13.5C25.5 13.8978 25.342 14.2794 25.0607 14.5607C24.7794 14.842 24.3978 15 24 15C23.6022 15 23.2206 14.842 22.9393 14.5607C22.658 14.2794 22.5 13.8978 22.5 13.5C22.5 13.1022 22.658 12.7206 22.9393 12.4393C23.2206 12.158 23.6022 12 24 12C24.3978 12 24.7794 12.158 25.0607 12.4393C25.342 12.7206 25.5 13.1022 25.5 13.5ZM36.75 13.5C36.75 13.8978 36.592 14.2794 36.3107 14.5607C36.0294 14.842 35.6478 15 35.25 15C34.8522 15 34.4706 14.842 34.1893 14.5607C33.908 14.2794 33.75 13.8978 33.75 13.5C33.75 13.1022 33.908 12.7206 34.1893 12.4393C34.4706 12.158 34.8522 12 35.25 12C35.6478 12 36.0294 12.158 36.3107 12.4393C36.592 12.7206 36.75 13.1022 36.75 13.5Z" fill="white"/>
<path fill-rule="evenodd" clip-rule="evenodd" d="M6 20.538V18H3V19.311C3.873 19.932 4.896 20.361 6 20.538ZM3 22.749C3.933 23.169 4.941 23.445 6 23.562V42H3V22.749ZM42 23.562C43.0359 23.449 44.048 23.1757 45 22.752V42H42V23.562ZM45 19.311C44.127 19.932 43.104 20.361 42 20.538V18H45V19.311ZM9 25.5C9 25.1022 9.15804 24.7206 9.43934 24.4393C9.72064 24.158 10.1022 24 10.5 24H22.5C22.8978 24 23.2794 24.158 23.5607 24.4393C23.842 24.7206 24 25.1022 24 25.5V42H21V27H12V42H9V25.5ZM27 25.5C27 25.1022 27.158 24.7206 27.4393 24.4393C27.7206 24.158 28.1022 24 28.5 24H37.5C37.8978 24 38.2794 24.158 38.5607 24.4393C38.842 24.7206 39 25.1022 39 25.5V37.5C39 37.8978 38.842 38.2794 38.5607 38.5607C38.2794 38.842 37.8978 39 37.5 39H28.5C28.1022 39 27.7206 38.842 27.4393 38.5607C27.158 38.2794 27 37.8978 27 37.5V25.5ZM30 27V36H36V27H30Z" fill="white"/>
</svg>
