<svg width="145" height="148" viewBox="0 0 145 148" fill="none" xmlns="http://www.w3.org/2000/svg">
<path fill-rule="evenodd" clip-rule="evenodd" d="M41.747 0.684562C55.656 -2.70819 68.5489 7.52897 82.7711 9.14523C96.7913 10.7385 112.36 2.15913 124.06 10.0389C135.979 18.0664 138.194 34.398 141.144 48.4609C144.087 62.4904 146.65 77.2704 140.921 90.4178C135.169 103.621 121.58 110.442 110.258 119.35C96.6338 130.069 85.3602 149.785 68.1594 147.664C50.9082 145.537 45.0264 123.424 34.0545 109.953C25.1466 99.0166 15.2108 89.4894 10.0751 76.3523C4.07766 61.0109 -4.04556 43.9718 2.31748 28.7698C8.70236 13.5156 25.6778 4.60422 41.747 0.684562Z" fill="url(#paint0_linear_4_66)" fill-opacity="0.5"/>
<defs>
<linearGradient id="paint0_linear_4_66" x1="41.5756" y1="-3.01447" x2="115.628" y2="125.247" gradientUnits="userSpaceOnUse">
<stop stop-color="#6D678E"/>
<stop offset="1" stop-color="#F6B5CC"/>
</linearGradient>
</defs>
</svg>
