<svg width="136" height="149" viewBox="0 0 136 149" fill="none" xmlns="http://www.w3.org/2000/svg">
<path fill-rule="evenodd" clip-rule="evenodd" d="M65.8803 3.28914C79.6223 7.30546 85.6693 22.6175 97.1779 31.1284C108.523 39.5183 126.296 39.8729 132.488 52.5466C138.796 65.4581 132.549 80.7095 128.073 94.3634C123.607 107.985 118.436 122.066 106.901 130.588C95.318 139.145 80.1387 138.258 65.8803 140.312C48.7216 142.783 29.1001 154.221 15.2643 143.784C1.38785 133.316 7.35084 111.224 4.58419 94.0723C2.33798 80.147 -1.50311 66.9283 0.617809 52.9834C3.0946 36.6986 4.57922 17.8808 17.6908 7.89694C30.8474 -2.12116 50.0042 -1.35092 65.8803 3.28914Z" fill="url(#paint0_linear_4_65)"/>
<defs>
<linearGradient id="paint0_linear_4_65" x1="67.5814" y1="3.89091e-06" x2="67.5814" y2="148.104" gradientUnits="userSpaceOnUse">
<stop stop-color="#6D678E"/>
<stop offset="1" stop-color="#F6B5CC"/>
</linearGradient>
</defs>
</svg>
